<svg id="visual" viewBox="0 0 900 600" width="900" height="600" xmlns="http://www.w3.org/2000/svg" xmlns:xlink="http://www.w3.org/1999/xlink" version="1.1"><rect x="0" y="0" width="900" height="600" fill="#e2e8f0"></rect><defs><linearGradient id="grad1_0" x1="33.3%" y1="0%" x2="100%" y2="100%"><stop offset="20%" stop-color="#e2e8f0" stop-opacity="1"></stop><stop offset="80%" stop-color="#e2e8f0" stop-opacity="1"></stop></linearGradient></defs><defs><linearGradient id="grad2_0" x1="0%" y1="0%" x2="66.7%" y2="100%"><stop offset="20%" stop-color="#e2e8f0" stop-opacity="1"></stop><stop offset="80%" stop-color="#e2e8f0" stop-opacity="1"></stop></linearGradient></defs><g transform="translate(900, 0)"><path d="M0 351.5C-21.9 312.1 -43.8 272.7 -70.1 261.8C-96.5 250.8 -127.2 268.2 -153 265C-178.8 261.8 -199.6 237.9 -215.7 215.7C-231.7 193.4 -243 172.8 -265.9 153.5C-288.8 134.2 -323.3 116.3 -339.6 91C-355.8 65.6 -353.7 32.8 -351.5 0L0 0Z" fill="#4f46e5"></path></g><g transform="translate(0, 600)"><path d="M0 -351.5C35.4 -358 70.8 -364.4 91 -339.6C111.2 -314.7 116.1 -258.7 138 -239C159.9 -219.4 198.7 -236.2 231.2 -231.2C263.7 -226.3 289.9 -199.5 292.7 -169C295.6 -138.5 275.2 -104.1 281.1 -75.3C287 -46.5 319.3 -23.3 351.5 0L0 0Z" fill="#4f46e5"></path></g></svg>